<svg width="39" height="28" viewBox="0 0 39 28" fill="none" xmlns="http://www.w3.org/2000/svg">
<path d="M26.5985 25.2917C27.6006 26.5833 28.8116 28 28.8116 28C36.1606 27.75 39 22.9167 39 22.9167C39 12.1668 34.1981 3.50014 34.1981 3.50014C29.3961 -0.0831684 24.803 0.000164609 24.803 0.000164609L24.3437 0.541828C30.0225 2.29182 32.6531 4.7918 32.6531 4.7918C29.1874 2.87515 25.8051 1.91682 22.6317 1.58349C20.2098 1.29182 17.9133 1.37516 15.8672 1.62516C15.6585 1.62516 15.4914 1.66682 15.2827 1.70849C14.1135 1.79182 11.2741 2.25015 7.72484 3.79181C6.47216 4.37514 5.76231 4.75014 5.76231 4.75014C5.76231 4.75014 8.5182 2.12515 14.531 0.375162L14.197 0.000164609C14.197 0.000164609 9.60385 -0.0831684 4.80193 3.50014C4.80193 3.50014 0 12.2084 0 22.9167C0 22.9167 2.79764 27.75 10.1884 28C10.1884 28 11.4411 26.5 12.4433 25.25C8.18415 24 6.59743 21.3334 6.59743 21.3334C6.59743 21.3334 6.93148 21.5417 7.51606 21.875C7.55782 21.9167 7.59957 21.9584 7.64133 21.9584C7.76659 22.0417 7.85011 22.0834 7.93362 22.125C8.76874 22.5834 9.60385 22.9584 10.3555 23.25C11.7334 23.7917 13.3619 24.3334 15.2827 24.6667C17.788 25.125 20.7109 25.2917 23.9261 24.7084C25.5128 24.4584 27.1413 24 28.8116 23.2917C29.9807 22.875 31.2752 22.2084 32.6531 21.3334C32.6531 21.3334 30.9829 24.0834 26.5985 25.2917ZM13.2784 19.8334C11.3994 19.8334 9.85439 18.1667 9.85439 16.1251C9.85439 14.0834 11.3576 12.4168 13.2784 12.4168C15.1991 12.4168 16.7024 14.0834 16.6606 16.1251C16.6606 18.1667 15.1574 19.8334 13.2784 19.8334ZM25.4711 19.8334C23.5921 19.8334 22.0471 18.1667 22.0471 16.1251C22.0471 14.0834 23.5503 12.4168 25.4711 12.4168C27.3919 12.4168 28.8951 14.0834 28.8951 16.1251C28.8533 18.1667 27.3501 19.8334 25.4711 19.8334Z" fill="white"/>
</svg>
