<svg width="40" height="40" viewBox="0 0 40 40" fill="none" xmlns="http://www.w3.org/2000/svg">
<circle cx="20" cy="20" r="20" fill="#1DA1F2"/>
<path d="M15.5475 29.9016C24.6041 29.9016 29.5577 22.3983 29.5577 15.8914C29.5577 15.6783 29.5577 15.4661 29.5433 15.2549C30.507 14.5579 31.3389 13.6948 32 12.7061C31.1014 13.1045 30.148 13.3657 29.1718 13.4808C30.1998 12.8655 30.9691 11.8976 31.3366 10.7573C30.3701 11.3309 29.3126 11.7351 28.2099 11.9525C27.4675 11.1631 26.4856 10.6404 25.4162 10.4652C24.3467 10.29 23.2494 10.4722 22.2939 10.9836C21.3385 11.4949 20.5782 12.3069 20.1307 13.2939C19.6832 14.2808 19.5735 15.3878 19.8185 16.4434C17.8609 16.3452 15.9457 15.8364 14.1974 14.9501C12.4491 14.0638 10.9067 12.8198 9.67036 11.2988C9.04069 12.3828 8.84783 13.666 9.13106 14.8872C9.41429 16.1084 10.1523 17.1757 11.1948 17.8719C10.4112 17.8489 9.64461 17.6375 8.95996 17.2556V17.318C8.96027 18.4548 9.35381 19.5566 10.0738 20.4363C10.7939 21.3161 11.796 21.9197 12.9104 22.1448C12.1854 22.3426 11.4248 22.3715 10.687 22.2293C11.0018 23.2076 11.6144 24.0632 12.4392 24.6763C13.264 25.2894 14.2598 25.6294 15.2873 25.6488C14.2664 26.4513 13.0973 27.0446 11.8468 27.3948C10.5964 27.745 9.28918 27.8453 7.99996 27.6898C10.2518 29.1348 12.8719 29.9013 15.5475 29.8978" fill="white"/>
</svg>
