<svg width="40" height="28" viewBox="0 0 40 28" fill="none" xmlns="http://www.w3.org/2000/svg">
<path d="M16 20.0028V7.99724L26.4 14L16 20.0028Z" fill="white"/>
<path d="M39.1561 4.37143C38.9285 3.52577 38.4828 2.75473 37.8636 2.13548C37.2443 1.51623 36.4733 1.07048 35.6277 0.842857C32.5136 1.96345e-07 20 0 20 0C20 0 7.48639 1.96345e-07 4.37227 0.842857C3.52666 1.07048 2.75566 1.51623 2.13644 2.13548C1.51722 2.75473 1.0715 3.52577 0.843887 4.37143C0.262412 7.54752 -0.0197625 10.7712 0.00107485 14C-0.0197625 17.2288 0.262412 20.4525 0.843887 23.6286C1.0715 24.4742 1.51722 25.2453 2.13644 25.8645C2.75566 26.4838 3.52666 26.9295 4.37227 27.1571C7.48639 28 20 28 20 28C20 28 32.5136 28 35.6277 27.1571C36.4733 26.9295 37.2443 26.4838 37.8636 25.8645C38.4828 25.2453 38.9285 24.4742 39.1561 23.6286C39.7376 20.4525 40.0198 17.2288 39.9989 14C40.0198 10.7712 39.7376 7.54752 39.1561 4.37143ZM16.0002 20V8L26.3854 14L16.0002 20Z" fill="#FC0100"/>
</svg>
